<svg xmlns="http://www.w3.org/2000/svg" width="20" height="15" viewBox="0 0 20 15" role="img" aria-hidden="true">
<rect x="0" y="0" width="20" height="15" fill="#00008b"/><rect x="0" y="0" width="10.0" height="7.5" fill="#012169"/><rect x="4.2" y="0" width="1.6" height="7.5" fill="#fff"/><rect x="0" y="2.9250000000000003" width="10.0" height="1.65" fill="#fff"/><rect x="4.6000000000000005" y="0" width="0.8" height="7.5" fill="#c8102e"/><rect x="0" y="3.3" width="10.0" height="0.8999999999999999" fill="#c8102e"/><polygon points="15.00,6.90 15.33,7.79 16.28,7.83 15.54,8.43 15.79,9.34 15.00,8.82 14.21,9.34 14.46,8.43 13.72,7.83 14.67,7.79" fill="#fff"/><polygon points="17.40,2.33 17.57,2.77 18.04,2.79 17.67,3.09 17.80,3.55 17.40,3.28 17.00,3.55 17.13,3.09 16.76,2.79 17.23,2.77" fill="#fff"/>
</svg>
