<svg xmlns="http://www.w3.org/2000/svg" width="20" height="15" viewBox="0 0 20 15" role="img" aria-hidden="true">
<rect x="0" y="0" width="20" height="15" fill="#002f6c"/><polygon points="8.4,0 20,0 20, 15" fill="#f7d117"/><polygon points="9.60,1.27 9.73,1.62 10.10,1.64 9.81,1.87 9.91,2.22 9.60,2.02 9.29,2.22 9.39,1.87 9.10,1.64 9.47,1.62" fill="#fff"/><polygon points="11.00,2.92 11.13,3.27 11.50,3.29 11.21,3.52 11.31,3.87 11.00,3.67 10.69,3.87 10.79,3.52 10.50,3.29 10.87,3.27" fill="#fff"/><polygon points="12.40,4.57 12.53,4.92 12.90,4.94 12.61,5.17 12.71,5.52 12.40,5.32 12.09,5.52 12.19,5.17 11.90,4.94 12.27,4.92" fill="#fff"/><polygon points="13.80,6.22 13.93,6.57 14.30,6.59 14.01,6.82 14.11,7.17 13.80,6.97 13.49,7.17 13.59,6.82 13.30,6.59 13.67,6.57" fill="#fff"/><polygon points="15.20,7.88 15.33,8.22 15.70,8.24 15.41,8.47 15.51,8.82 15.20,8.62 14.89,8.82 14.99,8.47 14.70,8.24 15.07,8.22" fill="#fff"/><polygon points="16.60,9.53 16.73,9.87 17.10,9.89 16.81,10.12 16.91,10.47 16.60,10.27 16.29,10.47 16.39,10.12 16.10,9.89 16.47,9.87" fill="#fff"/>
</svg>
