<svg xmlns="http://www.w3.org/2000/svg" width="20" height="15" viewBox="0 0 20 15" role="img" aria-hidden="true">
<rect x="0" y="0" width="20" height="15" fill="#00247d"/><rect x="0" y="0" width="9.0" height="7.5" fill="#012169"/><rect x="3.78" y="0" width="1.44" height="7.5" fill="#fff"/><rect x="0" y="2.9250000000000003" width="9.0" height="1.65" fill="#fff"/><rect x="4.140000000000001" y="0" width="0.72" height="7.5" fill="#c8102e"/><rect x="0" y="3.3" width="9.0" height="0.8999999999999999" fill="#c8102e"/><polygon points="14.40,3.97 14.60,4.52 15.18,4.55 14.73,4.91 14.88,5.47 14.40,5.15 13.92,5.47 14.07,4.91 13.62,4.55 14.20,4.52" fill="#cc142b" stroke="#fff" stroke-width="0.5"/><polygon points="16.80,5.47 17.00,6.02 17.58,6.05 17.13,6.41 17.28,6.97 16.80,6.65 16.32,6.97 16.47,6.41 16.02,6.05 16.60,6.02" fill="#cc142b" stroke="#fff" stroke-width="0.5"/><polygon points="15.20,7.87 15.40,8.42 15.98,8.45 15.53,8.81 15.68,9.37 15.20,9.05 14.72,9.37 14.87,8.81 14.42,8.45 15.00,8.42" fill="#cc142b" stroke="#fff" stroke-width="0.5"/><polygon points="18.00,9.23 18.20,9.77 18.78,9.80 18.33,10.16 18.48,10.72 18.00,10.40 17.52,10.72 17.67,10.16 17.22,9.80 17.80,9.77" fill="#cc142b" stroke="#fff" stroke-width="0.5"/>
</svg>
