<svg xmlns="http://www.w3.org/2000/svg" width="20" height="15" viewBox="0 0 20 15" role="img" aria-hidden="true">
<rect x="0" y="0.0" width="20" height="1.0714285714285714" fill="#b22234"/><rect x="0" y="1.0714285714285714" width="20" height="1.0714285714285714" fill="#fff"/><rect x="0" y="2.142857142857143" width="20" height="1.0714285714285714" fill="#b22234"/><rect x="0" y="3.2142857142857144" width="20" height="1.0714285714285714" fill="#fff"/><rect x="0" y="4.285714285714286" width="20" height="1.0714285714285714" fill="#b22234"/><rect x="0" y="5.357142857142857" width="20" height="1.0714285714285714" fill="#fff"/><rect x="0" y="6.428571428571429" width="20" height="1.0714285714285714" fill="#b22234"/><rect x="0" y="7.5" width="20" height="1.0714285714285714" fill="#fff"/><rect x="0" y="8.571428571428571" width="20" height="1.0714285714285714" fill="#b22234"/><rect x="0" y="9.642857142857142" width="20" height="1.0714285714285714" fill="#fff"/><rect x="0" y="10.714285714285714" width="20" height="1.0714285714285714" fill="#b22234"/><rect x="0" y="11.785714285714286" width="20" height="1.0714285714285714" fill="#fff"/><rect x="0" y="12.857142857142858" width="20" height="1.0714285714285714" fill="#b22234"/><rect x="0" y="13.928571428571429" width="20" height="1.0714285714285714" fill="#fff"/><rect x="0" y="0" width="9.0" height="8.100000000000001" fill="#3c3b6e"/><circle cx="1.2" cy="1.2" r="0.18" fill="#fff"/><circle cx="2.4" cy="1.2" r="0.18" fill="#fff"/><circle cx="3.5999999999999996" cy="1.2" r="0.18" fill="#fff"/><circle cx="4.8" cy="1.2" r="0.18" fill="#fff"/><circle cx="6.0" cy="1.2" r="0.18" fill="#fff"/><circle cx="7.199999999999999" cy="1.2" r="0.18" fill="#fff"/><circle cx="1.2" cy="2.4" r="0.18" fill="#fff"/><circle cx="2.4" cy="2.4" r="0.18" fill="#fff"/><circle cx="3.5999999999999996" cy="2.4" r="0.18" fill="#fff"/><circle cx="4.8" cy="2.4" r="0.18" fill="#fff"/><circle cx="6.0" cy="2.4" r="0.18" fill="#fff"/><circle cx="7.199999999999999" cy="2.4" r="0.18" fill="#fff"/><circle cx="1.2" cy="3.5999999999999996" r="0.18" fill="#fff"/><circle cx="2.4" cy="3.5999999999999996" r="0.18" fill="#fff"/><circle cx="3.5999999999999996" cy="3.5999999999999996" r="0.18" fill="#fff"/><circle cx="4.8" cy="3.5999999999999996" r="0.18" fill="#fff"/><circle cx="6.0" cy="3.5999999999999996" r="0.18" fill="#fff"/><circle cx="7.199999999999999" cy="3.5999999999999996" r="0.18" fill="#fff"/><circle cx="1.2" cy="4.8" r="0.18" fill="#fff"/><circle cx="2.4" cy="4.8" r="0.18" fill="#fff"/><circle cx="3.5999999999999996" cy="4.8" r="0.18" fill="#fff"/><circle cx="4.8" cy="4.8" r="0.18" fill="#fff"/><circle cx="6.0" cy="4.8" r="0.18" fill="#fff"/><circle cx="7.199999999999999" cy="4.8" r="0.18" fill="#fff"/>
</svg>
