<svg xmlns="http://www.w3.org/2000/svg" width="20" height="15" viewBox="0 0 20 15" role="img" aria-hidden="true">
<rect x="0" y="0.0" width="20" height="5.0" fill="#1eb6e7"/><rect x="0" y="5.0" width="20" height="5.0" fill="#fff"/><rect x="0" y="10.0" width="20" height="5.0" fill="#009b3a"/><rect x="0" y="4.8" width="20" height="0.525" fill="#ce1126"/><rect x="0" y="9.6" width="20" height="0.525" fill="#ce1126"/><circle cx="3.5999999999999996" cy="2.5500000000000003" r="1.05" fill="#fff"/><circle cx="4.2" cy="2.5500000000000003" r="0.8999999999999999" fill="#1eb6e7"/><polygon points="6.40,1.27 6.49,1.52 6.76,1.53 6.55,1.70 6.62,1.95 6.40,1.81 6.18,1.95 6.25,1.70 6.04,1.53 6.31,1.52" fill="#fff"/><polygon points="7.50,1.27 7.59,1.52 7.86,1.53 7.65,1.70 7.72,1.95 7.50,1.81 7.28,1.95 7.35,1.70 7.14,1.53 7.41,1.52" fill="#fff"/><polygon points="8.60,1.27 8.69,1.52 8.96,1.53 8.75,1.70 8.82,1.95 8.60,1.81 8.38,1.95 8.45,1.70 8.24,1.53 8.51,1.52" fill="#fff"/><polygon points="9.70,1.27 9.79,1.52 10.06,1.53 9.85,1.70 9.92,1.95 9.70,1.81 9.48,1.95 9.55,1.70 9.34,1.53 9.61,1.52" fill="#fff"/><polygon points="6.40,2.48 6.49,2.72 6.76,2.73 6.55,2.90 6.62,3.15 6.40,3.01 6.18,3.15 6.25,2.90 6.04,2.73 6.31,2.72" fill="#fff"/><polygon points="7.50,2.48 7.59,2.72 7.86,2.73 7.65,2.90 7.72,3.15 7.50,3.01 7.28,3.15 7.35,2.90 7.14,2.73 7.41,2.72" fill="#fff"/><polygon points="8.60,2.48 8.69,2.72 8.96,2.73 8.75,2.90 8.82,3.15 8.60,3.01 8.38,3.15 8.45,2.90 8.24,2.73 8.51,2.72" fill="#fff"/><polygon points="9.70,2.48 9.79,2.72 10.06,2.73 9.85,2.90 9.92,3.15 9.70,3.01 9.48,3.15 9.55,2.90 9.34,2.73 9.61,2.72" fill="#fff"/><polygon points="6.40,3.68 6.49,3.92 6.76,3.93 6.55,4.10 6.62,4.35 6.40,4.21 6.18,4.35 6.25,4.10 6.04,3.93 6.31,3.92" fill="#fff"/><polygon points="7.50,3.68 7.59,3.92 7.86,3.93 7.65,4.10 7.72,4.35 7.50,4.21 7.28,4.35 7.35,4.10 7.14,3.93 7.41,3.92" fill="#fff"/><polygon points="8.60,3.68 8.69,3.92 8.96,3.93 8.75,4.10 8.82,4.35 8.60,4.21 8.38,4.35 8.45,4.10 8.24,3.93 8.51,3.92" fill="#fff"/><polygon points="9.70,3.68 9.79,3.92 10.06,3.93 9.85,4.10 9.92,4.35 9.70,4.21 9.48,4.35 9.55,4.10 9.34,3.93 9.61,3.92" fill="#fff"/>
</svg>
