<svg xmlns="http://www.w3.org/2000/svg" width="24" height="18" viewBox="0 0 24 18" role="img" aria-hidden="true">
<rect x="0" y="0" width="24" height="18" fill="#00008b"/><rect x="0" y="0" width="12.0" height="9.0" fill="#012169"/><rect x="5.04" y="0" width="1.92" height="9.0" fill="#fff"/><rect x="0" y="3.5100000000000002" width="12.0" height="1.98" fill="#fff"/><rect x="5.5200000000000005" y="0" width="0.96" height="9.0" fill="#c8102e"/><rect x="0" y="3.96" width="12.0" height="1.08" fill="#c8102e"/><polygon points="18.00,8.28 18.40,9.35 19.54,9.40 18.65,10.11 18.95,11.21 18.00,10.58 17.05,11.21 17.35,10.11 16.46,9.40 17.60,9.35" fill="#fff"/><polygon points="20.88,2.79 21.08,3.32 21.65,3.35 21.20,3.71 21.36,4.26 20.88,3.94 20.40,4.26 20.56,3.71 20.11,3.35 20.68,3.32" fill="#fff"/>
</svg>
