<svg xmlns="http://www.w3.org/2000/svg" width="24" height="18" viewBox="0 0 24 18" role="img" aria-hidden="true">
<rect x="0" y="0" width="24" height="18" fill="#002f6c"/><polygon points="10.08,0 24,0 24, 18" fill="#f7d117"/><polygon points="11.52,1.53 11.68,1.95 12.12,1.97 11.77,2.24 11.89,2.67 11.52,2.42 11.15,2.67 11.27,2.24 10.92,1.97 11.36,1.95" fill="#fff"/><polygon points="13.20,3.51 13.36,3.93 13.80,3.95 13.45,4.22 13.57,4.65 13.20,4.40 12.83,4.65 12.95,4.22 12.60,3.95 13.04,3.93" fill="#fff"/><polygon points="14.88,5.49 15.04,5.91 15.48,5.93 15.13,6.20 15.25,6.63 14.88,6.38 14.51,6.63 14.63,6.20 14.28,5.93 14.72,5.91" fill="#fff"/><polygon points="16.56,7.47 16.72,7.89 17.16,7.91 16.81,8.18 16.93,8.61 16.56,8.36 16.19,8.61 16.31,8.18 15.96,7.91 16.40,7.89" fill="#fff"/><polygon points="18.24,9.45 18.40,9.87 18.84,9.89 18.49,10.16 18.61,10.59 18.24,10.34 17.87,10.59 17.99,10.16 17.64,9.89 18.08,9.87" fill="#fff"/><polygon points="19.92,11.43 20.08,11.85 20.52,11.87 20.17,12.14 20.29,12.57 19.92,12.32 19.55,12.57 19.67,12.14 19.32,11.87 19.76,11.85" fill="#fff"/>
</svg>
