<svg xmlns="http://www.w3.org/2000/svg" width="24" height="18" viewBox="0 0 24 18" role="img" aria-hidden="true">
<rect x="0" y="0" width="24" height="18" fill="#00247d"/><rect x="0" y="0" width="10.8" height="9.0" fill="#012169"/><rect x="4.5360000000000005" y="0" width="1.7280000000000002" height="9.0" fill="#fff"/><rect x="0" y="3.5100000000000002" width="10.8" height="1.98" fill="#fff"/><rect x="4.968000000000001" y="0" width="0.8640000000000001" height="9.0" fill="#c8102e"/><rect x="0" y="3.96" width="10.8" height="1.08" fill="#c8102e"/><polygon points="17.28,4.77 17.52,5.42 18.22,5.45 17.68,5.89 17.86,6.56 17.28,6.18 16.70,6.56 16.88,5.89 16.34,5.45 17.04,5.42" fill="#cc142b" stroke="#fff" stroke-width="0.5"/><polygon points="20.16,6.57 20.40,7.22 21.10,7.25 20.56,7.69 20.74,8.36 20.16,7.98 19.58,8.36 19.76,7.69 19.22,7.25 19.92,7.22" fill="#cc142b" stroke="#fff" stroke-width="0.5"/><polygon points="18.24,9.45 18.48,10.10 19.18,10.13 18.64,10.57 18.82,11.24 18.24,10.86 17.66,11.24 17.84,10.57 17.30,10.13 18.00,10.10" fill="#cc142b" stroke="#fff" stroke-width="0.5"/><polygon points="21.60,11.07 21.84,11.72 22.54,11.75 22.00,12.19 22.18,12.86 21.60,12.48 21.02,12.86 21.20,12.19 20.66,11.75 21.36,11.72" fill="#cc142b" stroke="#fff" stroke-width="0.5"/>
</svg>
