<svg xmlns="http://www.w3.org/2000/svg" width="24" height="18" viewBox="0 0 24 18" role="img" aria-hidden="true">
<rect x="0" y="0.0" width="24" height="1.2857142857142858" fill="#b22234"/><rect x="0" y="1.2857142857142858" width="24" height="1.2857142857142858" fill="#fff"/><rect x="0" y="2.5714285714285716" width="24" height="1.2857142857142858" fill="#b22234"/><rect x="0" y="3.857142857142857" width="24" height="1.2857142857142858" fill="#fff"/><rect x="0" y="5.142857142857143" width="24" height="1.2857142857142858" fill="#b22234"/><rect x="0" y="6.428571428571429" width="24" height="1.2857142857142858" fill="#fff"/><rect x="0" y="7.714285714285714" width="24" height="1.2857142857142858" fill="#b22234"/><rect x="0" y="9.0" width="24" height="1.2857142857142858" fill="#fff"/><rect x="0" y="10.285714285714286" width="24" height="1.2857142857142858" fill="#b22234"/><rect x="0" y="11.571428571428571" width="24" height="1.2857142857142858" fill="#fff"/><rect x="0" y="12.857142857142858" width="24" height="1.2857142857142858" fill="#b22234"/><rect x="0" y="14.142857142857142" width="24" height="1.2857142857142858" fill="#fff"/><rect x="0" y="15.428571428571429" width="24" height="1.2857142857142858" fill="#b22234"/><rect x="0" y="16.714285714285715" width="24" height="1.2857142857142858" fill="#fff"/><rect x="0" y="0" width="10.8" height="9.72" fill="#3c3b6e"/><circle cx="1.44" cy="1.44" r="0.216" fill="#fff"/><circle cx="2.88" cy="1.44" r="0.216" fill="#fff"/><circle cx="4.32" cy="1.44" r="0.216" fill="#fff"/><circle cx="5.76" cy="1.44" r="0.216" fill="#fff"/><circle cx="7.199999999999999" cy="1.44" r="0.216" fill="#fff"/><circle cx="8.64" cy="1.44" r="0.216" fill="#fff"/><circle cx="1.44" cy="2.88" r="0.216" fill="#fff"/><circle cx="2.88" cy="2.88" r="0.216" fill="#fff"/><circle cx="4.32" cy="2.88" r="0.216" fill="#fff"/><circle cx="5.76" cy="2.88" r="0.216" fill="#fff"/><circle cx="7.199999999999999" cy="2.88" r="0.216" fill="#fff"/><circle cx="8.64" cy="2.88" r="0.216" fill="#fff"/><circle cx="1.44" cy="4.32" r="0.216" fill="#fff"/><circle cx="2.88" cy="4.32" r="0.216" fill="#fff"/><circle cx="4.32" cy="4.32" r="0.216" fill="#fff"/><circle cx="5.76" cy="4.32" r="0.216" fill="#fff"/><circle cx="7.199999999999999" cy="4.32" r="0.216" fill="#fff"/><circle cx="8.64" cy="4.32" r="0.216" fill="#fff"/><circle cx="1.44" cy="5.76" r="0.216" fill="#fff"/><circle cx="2.88" cy="5.76" r="0.216" fill="#fff"/><circle cx="4.32" cy="5.76" r="0.216" fill="#fff"/><circle cx="5.76" cy="5.76" r="0.216" fill="#fff"/><circle cx="7.199999999999999" cy="5.76" r="0.216" fill="#fff"/><circle cx="8.64" cy="5.76" r="0.216" fill="#fff"/>
</svg>
