<svg xmlns="http://www.w3.org/2000/svg" width="24" height="18" viewBox="0 0 24 18" role="img" aria-hidden="true">
<rect x="0" y="0.0" width="24" height="6.0" fill="#1eb6e7"/><rect x="0" y="6.0" width="24" height="6.0" fill="#fff"/><rect x="0" y="12.0" width="24" height="6.0" fill="#009b3a"/><rect x="0" y="5.76" width="24" height="0.6300000000000001" fill="#ce1126"/><rect x="0" y="11.52" width="24" height="0.6300000000000001" fill="#ce1126"/><circle cx="4.32" cy="3.06" r="1.2600000000000002" fill="#fff"/><circle cx="5.04" cy="3.06" r="1.08" fill="#1eb6e7"/><polygon points="7.68,1.53 7.79,1.83 8.11,1.84 7.86,2.04 7.94,2.34 7.68,2.17 7.42,2.34 7.50,2.04 7.25,1.84 7.57,1.83" fill="#fff"/><polygon points="9.00,1.53 9.11,1.83 9.43,1.84 9.18,2.04 9.26,2.34 9.00,2.17 8.74,2.34 8.82,2.04 8.57,1.84 8.89,1.83" fill="#fff"/><polygon points="10.32,1.53 10.43,1.83 10.75,1.84 10.50,2.04 10.58,2.34 10.32,2.17 10.06,2.34 10.14,2.04 9.89,1.84 10.21,1.83" fill="#fff"/><polygon points="11.64,1.53 11.75,1.83 12.07,1.84 11.82,2.04 11.90,2.34 11.64,2.17 11.38,2.34 11.46,2.04 11.21,1.84 11.53,1.83" fill="#fff"/><polygon points="7.68,2.97 7.79,3.27 8.11,3.28 7.86,3.48 7.94,3.78 7.68,3.61 7.42,3.78 7.50,3.48 7.25,3.28 7.57,3.27" fill="#fff"/><polygon points="9.00,2.97 9.11,3.27 9.43,3.28 9.18,3.48 9.26,3.78 9.00,3.61 8.74,3.78 8.82,3.48 8.57,3.28 8.89,3.27" fill="#fff"/><polygon points="10.32,2.97 10.43,3.27 10.75,3.28 10.50,3.48 10.58,3.78 10.32,3.61 10.06,3.78 10.14,3.48 9.89,3.28 10.21,3.27" fill="#fff"/><polygon points="11.64,2.97 11.75,3.27 12.07,3.28 11.82,3.48 11.90,3.78 11.64,3.61 11.38,3.78 11.46,3.48 11.21,3.28 11.53,3.27" fill="#fff"/><polygon points="7.68,4.41 7.79,4.71 8.11,4.72 7.86,4.92 7.94,5.22 7.68,5.05 7.42,5.22 7.50,4.92 7.25,4.72 7.57,4.71" fill="#fff"/><polygon points="9.00,4.41 9.11,4.71 9.43,4.72 9.18,4.92 9.26,5.22 9.00,5.05 8.74,5.22 8.82,4.92 8.57,4.72 8.89,4.71" fill="#fff"/><polygon points="10.32,4.41 10.43,4.71 10.75,4.72 10.50,4.92 10.58,5.22 10.32,5.05 10.06,5.22 10.14,4.92 9.89,4.72 10.21,4.71" fill="#fff"/><polygon points="11.64,4.41 11.75,4.71 12.07,4.72 11.82,4.92 11.90,5.22 11.64,5.05 11.38,5.22 11.46,4.92 11.21,4.72 11.53,4.71" fill="#fff"/>
</svg>
